<svg width="19" height="23" viewBox="0 0 19 23" fill="none" xmlns="http://www.w3.org/2000/svg">
<path d="M18.9993 1.67684L16.9385 3.02682C15.6392 2.45506 14.2018 2.13738 12.6909 2.13738C6.86212 2.13738 2.13704 6.86246 2.13704 12.6913C2.13704 15.9882 3.64891 18.9316 6.01724 20.867L5.27337 22.9897C2.07921 20.685 0 16.9313 0 12.6913C0 5.68221 5.68221 0 12.6913 0C14.9878 0 17.1415 0.610193 19 1.67684H18.9993Z" fill="url(#paint0_linear_1220_20069)"/>
<path d="M16.1573 17.9627L17.7573 19.4348C16.3468 20.4957 14.5924 21.1252 12.691 21.1252C8.03296 21.1252 4.25684 17.3491 4.25684 12.691C4.25684 8.03296 8.03296 4.25684 12.691 4.25684V6.38197C9.20675 6.38197 6.38197 9.20675 6.38197 12.691C6.38197 16.1753 9.20675 18.9998 12.691 18.9998C13.9709 18.9998 15.1624 18.6188 16.157 17.9627H16.1573Z" fill="#D4E5F0"/>
<path d="M16.8829 12.6911C16.8829 13.6806 16.5408 14.5901 15.967 15.3071L14.3387 14.0023C14.62 13.6408 14.7874 13.1857 14.7874 12.6911C14.7874 11.5092 13.8296 10.5514 12.6483 10.5514C11.9847 10.5514 11.3919 10.8531 10.9994 11.3269L9.42285 10.0626C10.1909 9.10785 11.3694 8.49731 12.6898 8.49731C15.0057 8.49731 16.8829 10.3752 16.8829 12.6908V12.6911Z" fill="#515151"/>
<path d="M14.3401 14.0024L15.9683 15.3071C15.2003 16.2683 14.0177 16.8843 12.6912 16.8843C10.3752 16.8843 8.49805 15.0071 8.49805 12.6912C8.49805 11.696 8.84464 10.7817 9.42388 10.063L11.0004 11.3273C10.6939 11.6973 10.5096 12.1728 10.5096 12.6912C10.5096 13.8724 11.4674 14.8303 12.6493 14.8303C13.3364 14.8303 13.9483 14.5061 14.3398 14.0024H14.3401Z" fill="#9AB1BB"/>
<defs>
<linearGradient id="paint0_linear_1220_20069" x1="9.28077" y1="22.9897" x2="12.4583" y2="-4.61534" gradientUnits="userSpaceOnUse">
<stop stop-color="#EB1010"/>
<stop offset="1" stop-color="#D74E4E"/>
</linearGradient>
</defs>
</svg>
